<svg
  width="36"
  height="36"
  viewBox="0 0 36 36"
  fill="none"
  xmlns="http://www.w3.org/2000/svg"
>
<rect x="9" y="1" width="18" height="2" rx="1" fill="#1B1B1A" />
<path
    d="M9.5 1.99999H26.5C26 9.49999 25.7493 11.5055 25.5 13.5C25 17.5 24.5 18.5 24.5 18.5C24.5 18.5 24 19.5 22.5 19.7692C22.2222 27 23 30 24.5 35H12C13.8056 28.5 13.5648 22.0128 13.5 19.7692C12.7985 19.7692 12 19 12 19C11 18 11 17.5 10.5 15C10 11.5 10 11.5 9.5 2.5L9.5 2.49999C9.46679 2.00645 9.53376 2.52195 9.5 1.99999Z"
    fill="#F9C926"
  />
<path
    d="M13.5 19.7692C12.7985 19.7692 12 19 12 19C11 18 11 17.5 10.5 15C10 11.5 10 11.5 9.5 2.49999C9.46679 2.00645 9.53376 2.52195 9.5 1.99999H26.5M13.5 19.7692C14.2015 19.7692 18.0278 19.7692 18.0278 19.7692H22.5M13.5 19.7692C13.5648 22.0128 13.8056 28.5 12 35H24.5C23 30 22.2222 27 22.5 19.7692M22.5 19.7692C24 19.5 24.5 18.5 24.5 18.5C24.5 18.5 25 17.5 25.5 13.5C25.7493 11.5055 26 9.49999 26.5 1.99999M26.5 1.99999C26.5 0.99999 26.5 2.49999 26.5 1.99999Z"
    stroke="#1B1B1A"
    strokeWidth="0.5"
  />
</svg>
