<svg
  height="36"
  viewBox="0 0 64 46"
  fill="none"
  xmlns="http://www.w3.org/2000/svg"
>
<g clip-path="url(#clip0_24_121)">
<!-- <g filter="url(#filter0_d_24_121)">
<path
        d="M82.6758 38L82.5703 35.3633C82.1953 35.8203 81.8086 36.2363 81.4102 36.6113C81.0117 36.9863 80.584 37.3086 80.127 37.5781C79.6699 37.8359 79.1777 38.0352 78.6504 38.1758C78.1348 38.3281 77.5605 38.4043 76.9277 38.4043C75.873 38.4043 74.9355 38.1934 74.1152 37.7715C73.2949 37.3496 72.6035 36.752 72.041 35.9785C71.4902 35.1934 71.0684 34.2441 70.7754 33.1309C70.4824 32.0176 70.3359 30.7754 70.3359 29.4043C70.3359 27.7637 70.5645 26.3457 71.0215 25.1504C71.4902 23.9434 72.1348 22.9473 72.9551 22.1621C73.7754 21.3652 74.748 20.7793 75.873 20.4043C76.998 20.0176 78.2227 19.8242 79.5469 19.8242C79.9922 19.8242 80.4375 19.8535 80.8828 19.9121C81.3398 19.9707 81.7441 20.0469 82.0957 20.1406V13.1621H86.3848V38H82.6758ZM74.8359 29.2109C74.8359 30.1953 74.9004 31.0391 75.0293 31.7422C75.1699 32.4336 75.3691 33.002 75.627 33.4473C75.8965 33.8926 76.2246 34.2207 76.6113 34.4316C76.998 34.6309 77.4375 34.7305 77.9297 34.7305C78.6562 34.7305 79.3477 34.4375 80.0039 33.8516C80.6602 33.2656 81.3574 32.4629 82.0957 31.4434V23.6387C81.7559 23.5098 81.334 23.4043 80.8301 23.3223C80.3379 23.2402 79.8398 23.1992 79.3359 23.1992C78.6445 23.1992 78.0234 23.3398 77.4727 23.6211C76.9219 23.9023 76.4473 24.3008 76.0488 24.8164C75.6621 25.332 75.3633 25.9648 75.1523 26.7148C74.9414 27.4531 74.8359 28.2852 74.8359 29.2109ZM94.4102 20.1406V31.7773C94.4102 32.75 94.5919 33.4883 94.9552 33.9922C95.3184 34.4844 95.8692 34.7305 96.6075 34.7305C97.3223 34.7305 98.0079 34.4375 98.6641 33.8516C99.3321 33.2539 100.035 32.4512 100.774 31.4434V20.1406H105.063V38H101.354L101.248 35.3633C100.873 35.8203 100.492 36.2363 100.106 36.6113C99.7188 36.9863 99.297 37.3086 98.8399 37.5781C98.3946 37.8359 97.9024 38.0352 97.3634 38.1758C96.836 38.3281 96.2501 38.4043 95.6055 38.4043C94.6915 38.4043 93.8888 38.2578 93.1973 37.9648C92.5177 37.6602 91.9493 37.2324 91.4923 36.6816C91.0352 36.1309 90.6895 35.4746 90.4552 34.7129C90.2325 33.9395 90.1212 33.0781 90.1212 32.1289V20.1406H94.4102ZM119.522 38V26.3633C119.522 24.4062 118.795 23.4277 117.342 23.4277C116.615 23.4277 115.918 23.7207 115.25 24.3066C114.594 24.8926 113.897 25.6895 113.158 26.6973V38H108.869V20.1406H112.578L112.684 22.7773C113.047 22.3203 113.422 21.9043 113.809 21.5293C114.207 21.1543 114.635 20.8379 115.092 20.5801C115.549 20.3105 116.041 20.1055 116.569 19.9648C117.096 19.8242 117.688 19.7539 118.344 19.7539C119.258 19.7539 120.055 19.9062 120.735 20.2109C121.414 20.5039 121.983 20.9258 122.44 21.4766C122.897 22.0156 123.236 22.6719 123.459 23.4453C123.694 24.207 123.811 25.0625 123.811 26.0117V38H119.522ZM138.815 38L138.709 35.3633C138.334 35.8203 137.947 36.2363 137.549 36.6113C137.151 36.9863 136.723 37.3086 136.266 37.5781C135.809 37.8359 135.317 38.0352 134.789 38.1758C134.274 38.3281 133.699 38.4043 133.067 38.4043C132.012 38.4043 131.074 38.1934 130.254 37.7715C129.434 37.3496 128.742 36.752 128.18 35.9785C127.629 35.1934 127.207 34.2441 126.914 33.1309C126.621 32.0176 126.475 30.7754 126.475 29.4043C126.475 27.7637 126.703 26.3457 127.16 25.1504C127.629 23.9434 128.274 22.9473 129.094 22.1621C129.914 21.3652 130.887 20.7793 132.012 20.4043C133.137 20.0176 134.362 19.8242 135.686 19.8242C136.131 19.8242 136.576 19.8535 137.022 19.9121C137.479 19.9707 137.883 20.0469 138.235 20.1406V13.1621H142.524V38H138.815ZM130.975 29.2109C130.975 30.1953 131.039 31.0391 131.168 31.7422C131.309 32.4336 131.508 33.002 131.766 33.4473C132.035 33.8926 132.364 34.2207 132.75 34.4316C133.137 34.6309 133.576 34.7305 134.069 34.7305C134.795 34.7305 135.487 34.4375 136.143 33.8516C136.799 33.2656 137.496 32.4629 138.235 31.4434V23.6387C137.895 23.5098 137.473 23.4043 136.969 23.3223C136.477 23.2402 135.979 23.1992 135.475 23.1992C134.783 23.1992 134.162 23.3398 133.612 23.6211C133.061 23.9023 132.586 24.3008 132.188 24.8164C131.801 25.332 131.502 25.9648 131.291 26.7148C131.08 27.4531 130.975 28.2852 130.975 29.2109ZM150.549 20.1406V31.7773C150.549 32.75 150.731 33.4883 151.094 33.9922C151.457 34.4844 152.008 34.7305 152.746 34.7305C153.461 34.7305 154.147 34.4375 154.803 33.8516C155.471 33.2539 156.174 32.4512 156.912 31.4434V20.1406H161.201V38H157.493L157.387 35.3633C157.012 35.8203 156.631 36.2363 156.244 36.6113C155.858 36.9863 155.436 37.3086 154.979 37.5781C154.534 37.8359 154.041 38.0352 153.502 38.1758C152.975 38.3281 152.389 38.4043 151.744 38.4043C150.83 38.4043 150.028 38.2578 149.336 37.9648C148.657 37.6602 148.088 37.2324 147.631 36.6816C147.174 36.1309 146.828 35.4746 146.594 34.7129C146.371 33.9395 146.26 33.0781 146.26 32.1289V20.1406H150.549ZM175.661 38V26.3633C175.661 24.4062 174.934 23.4277 173.481 23.4277C172.754 23.4277 172.057 23.7207 171.389 24.3066C170.733 24.8926 170.036 25.6895 169.297 26.6973V38H165.008V20.1406H168.717L168.823 22.7773C169.186 22.3203 169.561 21.9043 169.948 21.5293C170.346 21.1543 170.774 20.8379 171.231 20.5801C171.688 20.3105 172.18 20.1055 172.707 19.9648C173.235 19.8242 173.827 19.7539 174.483 19.7539C175.397 19.7539 176.194 19.9062 176.873 20.2109C177.553 20.5039 178.121 20.9258 178.579 21.4766C179.036 22.0156 179.375 22.6719 179.598 23.4453C179.832 24.207 179.95 25.0625 179.95 26.0117V38H175.661ZM187.805 33.6758C188.133 33.6758 188.438 33.7383 188.719 33.8633C189 33.9805 189.243 34.1445 189.446 34.3555C189.657 34.5586 189.821 34.8008 189.938 35.082C190.055 35.3633 190.114 35.6641 190.114 35.9844C190.114 36.2969 190.055 36.5938 189.938 36.875C189.821 37.1484 189.657 37.3906 189.446 37.6016C189.243 37.8047 189 37.9648 188.719 38.082C188.438 38.207 188.133 38.2695 187.805 38.2695C187.493 38.2695 187.2 38.207 186.926 38.082C186.653 37.9648 186.415 37.8047 186.211 37.6016C186.008 37.3906 185.848 37.1484 185.731 36.875C185.614 36.5938 185.555 36.2969 185.555 35.9844C185.555 35.6641 185.614 35.3633 185.731 35.082C185.848 34.8008 186.008 34.5586 186.211 34.3555C186.415 34.1445 186.653 33.9805 186.926 33.8633C187.2 33.7383 187.493 33.6758 187.805 33.6758ZM206.093 31.8359C206.093 32.9297 205.937 33.875 205.624 34.6719C205.32 35.4688 204.89 36.1328 204.335 36.6641C203.788 37.1875 203.14 37.5781 202.39 37.8359C201.64 38.0859 200.823 38.2109 199.941 38.2109C199.644 38.2109 199.347 38.1914 199.05 38.1523C198.753 38.1133 198.484 38.0625 198.241 38V42.6523H195.382V26.0938H197.855L197.925 27.8516C198.167 27.5469 198.417 27.2695 198.675 27.0195C198.941 26.7695 199.226 26.5586 199.53 26.3867C199.835 26.207 200.163 26.0703 200.515 25.9766C200.866 25.8828 201.261 25.8359 201.698 25.8359C202.402 25.8359 203.027 25.9766 203.573 26.2578C204.12 26.5391 204.577 26.9414 204.945 27.4648C205.32 27.9805 205.605 28.6094 205.8 29.3516C205.995 30.0859 206.093 30.9141 206.093 31.8359ZM203.093 31.9531C203.093 31.2969 203.046 30.7383 202.952 30.2773C202.859 29.8164 202.722 29.4375 202.542 29.1406C202.37 28.8438 202.155 28.6289 201.898 28.4961C201.648 28.3555 201.359 28.2852 201.03 28.2852C200.546 28.2852 200.081 28.4805 199.636 28.8711C199.198 29.2617 198.734 29.793 198.241 30.4648V35.668C198.468 35.7539 198.745 35.8242 199.073 35.8789C199.409 35.9336 199.749 35.9609 200.093 35.9609C200.546 35.9609 200.956 35.8672 201.323 35.6797C201.698 35.4922 202.015 35.2266 202.273 34.8828C202.538 34.5391 202.741 34.1211 202.882 33.6289C203.023 33.1289 203.093 32.5703 203.093 31.9531ZM211.701 23.668H208.338V21.4414H214.631V35.7734H218.064V38H207.928V35.7734H211.701V23.668Z"
        fill="#455F5D"
      />
</g> -->
<circle cx="44" cy="26" r="18.5" stroke="#455F5D" stroke-width="3" />
<circle cx="44" cy="26" r="14" fill="#455F5D" />
<circle cx="13" cy="27" r="11.5" stroke="#455F5D" stroke-width="3" />
<circle cx="13" cy="27" r="8" fill="#455F5D" />
<rect
      x="43.5661"
      y="29.2281"
      width="36.8182"
      height="4"
      rx="2"
      transform="rotate(-137.518 43.5661 29.2281)"
      fill="#455F5D"
      stroke="#0F2723"
      stroke-width="2"
    />
</g>
<defs>
<filter
      id="filter0_d_24_121"
      x="66.3359"
      y="13.1621"
      width="155.728"
      height="37.4902"
      filterUnits="userSpaceOnUse"
      color-interpolation-filters="sRGB"
    >
<feFlood flood-opacity="0" result="BackgroundImageFix" />
<feColorMatrix
        in="SourceAlpha"
        type="matrix"
        values="0 0 0 0 0 0 0 0 0 0 0 0 0 0 0 0 0 0 127 0"
        result="hardAlpha"
      />
<feOffset dy="4" />
<feGaussianBlur stdDeviation="2" />
<feComposite in2="hardAlpha" operator="out" />
<feColorMatrix
        type="matrix"
        values="0 0 0 0 0 0 0 0 0 0 0 0 0 0 0 0 0 0 0.25 0"
      />
<feBlend
        mode="normal"
        in2="BackgroundImageFix"
        result="effect1_dropShadow_24_121"
      />
<feBlend
        mode="normal"
        in="SourceGraphic"
        in2="effect1_dropShadow_24_121"
        result="shape"
      />
</filter>
<clipPath id="clip0_24_121">
<rect width="220" height="46" fill="white" />
</clipPath>
</defs>
</svg>
