export default (props) => <svg width="36" height="36" viewBox="0 0 36 36" fill="none" xmlns="http://www.w3.org/2000/svg">
<g clip-path="url(#clip0_108_2)">
<rect x="9.4251" width="10.9501" height="0.99546" rx="0.49773" transform="rotate(15.0414 9.4251 0)" fill="#1B1B1A"/>
<path d="M9.37375 0.214724L19.9427 3.05485C18.4119 7.51116 17.9298 8.68326 17.4504 9.84888C16.4889 12.1866 16.0154 12.7084 16.0154 12.7084C16.0154 12.7084 15.5419 13.2302 14.5655 13.1425C13.2167 17.473 13.2122 19.4189 13.3315 22.696L5.56018 20.6077C7.74 16.9748 8.64555 13.0078 8.9702 11.6389C8.53406 11.5217 8.16277 10.9227 8.16277 10.9227C7.70373 10.1503 7.78506 9.84767 7.88086 8.25085C8.13932 6.04872 8.13932 6.04872 9.29242 0.51738C9.35206 0.213083 9.30984 0.536313 9.37375 0.214724Z" fill="#F9C926"/>
<path d="M8.9702 11.6389C8.53406 11.5217 8.16277 10.9227 8.16277 10.9227C7.70373 10.1503 7.78506 9.84767 7.88086 8.25085C8.13932 6.04872 8.13932 6.04872 9.29242 0.51738C9.35206 0.213084 9.30984 0.536312 9.37375 0.214724L19.9427 3.05485M8.9702 11.6389C9.40634 11.7561 11.7851 12.3954 11.7851 12.3954L14.5655 13.1425M8.9702 11.6389C8.64555 13.0078 7.74 16.9748 5.56018 20.6077L13.3315 22.696C13.2122 19.4189 13.2167 17.473 14.5655 13.1425M14.5655 13.1425C15.5419 13.2302 16.0154 12.7084 16.0154 12.7084C16.0154 12.7084 16.4889 12.1866 17.4504 9.84888C17.9298 8.68326 18.4119 7.51116 19.9427 3.05485M19.9427 3.05485C20.1054 2.44954 19.8614 3.35751 19.9427 3.05485Z" stroke="#1B1B1A" stroke-width="0.5"/>
<path d="M14 23C16 28.5 34.8432 24.5 33.973 36H27C30 27 13 28 14 23Z" fill="#F9C926"/>
<path d="M6 22C6 28 17.5 27.5 14.9805 36C12.4609 44.5 10 36 10 36C14.4805 26.5 4.46116 28.5 6 22Z" fill="#F9C926"/>
</g>
<defs>
<clipPath id="clip0_108_2">
<rect width="36" height="36" rx="2" fill="white"/>
</clipPath>
</defs>
</svg>
